<?xml version="1.0" standalone="no"?>
<!DOCTYPE svg PUBLIC "-//W3C//DTD SVG 20010904//EN"
 "http://www.w3.org/TR/2001/REC-SVG-20010904/DTD/svg10.dtd">
<svg version="1.0" xmlns="http://www.w3.org/2000/svg"
 width="128.000000pt" height="128.000000pt" viewBox="0 0 128.000000 128.000000"
 preserveAspectRatio="xMidYMid meet">

<g transform="translate(0.000000,128.000000) scale(0.100000,-0.100000)"
fill="#000000" stroke="none">
<path d="M600 1249 c-30 -5 -93 -28 -139 -50 -66 -32 -101 -58 -157 -115 -45
-45 -82 -74 -94 -74 -12 0 -30 -5 -41 -10 -17 -10 -19 -21 -16 -103 2 -74 -1
-97 -15 -116 -12 -17 -16 -37 -13 -60 2 -20 10 -81 16 -136 10 -80 19 -114 48
-170 61 -120 238 -277 276 -245 25 20 17 33 -36 65 -82 48 -213 197 -171 195
4 -1 23 -23 42 -51 40 -57 133 -132 200 -161 52 -23 174 -51 210 -49 110 6
224 45 301 103 140 106 209 244 209 419 0 287 -223 509 -510 509 -141 -1 -246
-42 -354 -141 -37 -34 -70 -59 -73 -55 -12 12 101 117 162 151 89 50 165 69
270 68 154 -1 282 -58 390 -175 186 -200 196 -500 26 -716 -49 -62 -132 -126
-198 -153 -30 -13 -37 -18 -18 -14 51 10 134 67 200 137 212 224 207 565 -10
784 -136 136 -315 194 -505 163z m268 -91 c82 -26 174 -88 224 -152 41 -51 91
-148 102 -198 l6 -28 -79 0 c-76 0 -79 1 -85 26 -4 14 -17 42 -30 62 -30 48
-132 142 -154 142 -15 1 -15 2 2 15 17 13 15 14 -20 21 -32 6 -35 8 -21 19 28
21 19 28 -28 23 -40 -5 -44 -4 -33 10 24 29 -81 5 -142 -32 -38 -23 -73 -35
-115 -40 -33 -4 -81 -10 -107 -13 -60 -7 -61 5 -5 50 144 118 312 151 485 95z
m-193 -152 c36 -10 29 -11 -66 -8 -77 3 -121 0 -160 -12 -30 -8 -58 -11 -62
-7 -5 5 16 14 49 21 33 7 64 14 69 15 25 8 134 2 170 -9z m-318 -30 c3 -3 3
-12 0 -21 -9 -22 -37 -19 -37 5 0 17 -5 19 -27 14 -22 -4 -25 -3 -13 5 14 10
66 8 77 -3z m287 -63 c6 -15 8 -15 19 1 12 16 16 14 50 -18 39 -37 51 -74 20
-61 -10 4 -46 10 -80 14 -47 5 -63 4 -63 -5 0 -7 -3 -21 -6 -31 -6 -14 -2 -13
16 5 19 20 28 22 64 17 42 -8 96 -33 96 -47 0 -5 -17 1 -37 12 -21 11 -51 20
-68 19 l-30 -1 30 -9 c65 -22 78 -30 67 -41 -7 -7 -17 -6 -33 6 -13 9 -33 16
-44 16 -17 -1 -16 -3 8 -16 15 -8 27 -19 27 -24 0 -14 -7 -13 -38 8 l-27 17
23 -29 c37 -48 26 -64 -14 -20 -31 34 -34 35 -19 9 21 -37 56 -75 67 -75 4 0
8 12 8 28 0 36 9 48 44 62 28 10 29 10 22 -21 -5 -26 -4 -30 8 -20 8 7 23 32
33 57 10 24 21 44 25 44 17 0 20 -73 5 -111 -8 -21 -12 -39 -7 -39 12 0 48 47
56 73 l7 22 8 -23 c10 -26 4 -62 -18 -105 -14 -27 -13 -28 6 -18 29 16 31 14
31 -21 0 -38 -29 -107 -53 -126 -14 -12 -18 -9 -31 17 -9 16 -26 37 -38 47
-13 9 -16 14 -6 11 19 -7 18 11 -3 43 -15 23 -98 50 -157 50 l-33 0 23 -32
c20 -27 23 -40 17 -73 -5 -35 -6 -36 -8 -10 -1 17 -6 37 -11 45 -7 11 -9 2 -5
-30 l5 -45 -15 39 c-19 50 -40 73 -88 98 -36 18 -38 20 -20 33 10 8 14 15 9
15 -4 0 2 9 15 20 l24 20 -37 -15 c-44 -18 -135 -20 -175 -4 l-28 11 40 19
c26 12 33 18 20 19 -11 0 -40 -9 -64 -20 -24 -11 -57 -20 -75 -19 l-31 1 33 9
c43 13 41 18 -5 13 -47 -6 -69 7 -58 32 8 18 8 18 12 2 3 -10 9 -18 14 -18 16
0 52 20 76 43 20 18 28 19 58 10 23 -8 35 -8 35 -1 0 6 8 7 17 4 14 -6 14 -3
-4 16 -19 21 -53 80 -53 92 0 8 81 -23 98 -37 13 -10 14 -9 4 10 -15 26 -15
33 -2 33 16 0 40 -57 40 -96 0 -36 1 -37 19 -20 13 12 22 38 27 74 l7 56 18
-23 c43 -53 13 -132 -63 -167 l-33 -15 30 6 30 5 -25 -15 c-17 -10 -20 -14 -9
-15 30 0 96 57 113 99 9 23 16 48 16 57 0 15 48 73 61 74 4 0 10 -7 13 -17z
m-374 -73 c0 -13 -1 -13 -10 0 -5 8 -10 22 -10 30 0 13 1 13 10 0 5 -8 10 -22
10 -30z m-68 -32 c-9 -9 -12 -4 -11 23 0 32 1 33 11 11 8 -17 8 -26 0 -34z
m128 7 c7 -9 8 -15 2 -15 -5 0 -12 7 -16 15 -3 8 -4 15 -2 15 2 0 9 -7 16 -15z
m-80 0 c0 -2 -10 -9 -22 -15 -22 -11 -22 -10 -4 4 21 17 26 19 26 11z m-47
-193 c3 -31 12 -77 22 -102 9 -25 19 -54 21 -65 5 -18 3 -18 -15 4 -12 13 -21
29 -21 36 0 8 -7 21 -17 30 -23 23 -33 168 -11 160 10 -4 17 -25 21 -63z m83
-37 c-10 -8 -16 -21 -13 -29 4 -9 -1 -19 -9 -24 -13 -7 -9 -14 21 -40 l36 -32
-30 0 c-27 0 -31 5 -50 62 -12 34 -21 66 -21 70 0 4 19 8 43 8 38 -1 40 -2 23
-15z m107 -38 c32 -71 79 -123 146 -160 65 -37 64 -36 161 -44 41 -3 81 -10
87 -15 9 -7 15 -5 19 6 3 9 33 30 65 47 71 38 123 93 156 165 l24 54 75 0 c41
0 74 -4 74 -8 0 -5 -9 -35 -20 -67 -68 -196 -261 -335 -467 -335 -56 0 -63 3
-81 28 -11 15 -25 43 -30 62 -6 21 -11 27 -11 15 -1 -11 8 -38 20 -59 l20 -38
-38 6 c-69 12 -165 67 -232 132 -43 42 -62 68 -58 78 4 9 1 15 -5 13 -6 -1
-13 4 -15 11 -5 12 19 17 30 5 4 -3 20 -8 37 -10 36 -4 55 23 35 50 -7 10 -10
28 -7 40 3 12 2 19 -2 16 -8 -8 -56 37 -56 51 0 6 11 10 24 10 20 0 29 -10 49
-53z m97 -37 c-17 -32 -20 -20 -7 23 9 28 13 33 15 18 2 -11 -2 -30 -8 -41z
m280 50 c8 -5 11 -10 5 -10 -5 0 -17 5 -25 10 -8 5 -10 10 -5 10 6 0 17 -5 25
-10z m-253 -65 c-4 -8 -11 -15 -17 -15 -6 0 -6 7 2 20 14 22 24 19 15 -5z
m233 -60 c0 -3 -12 -17 -26 -30 -15 -14 -21 -25 -15 -25 7 0 9 -4 6 -10 -16
-25 -119 -2 -109 25 3 8 10 12 15 10 5 -3 21 2 36 12 28 17 28 17 10 -3 -17
-20 -16 -21 8 -32 14 -6 24 -8 22 -3 -1 4 9 20 23 34 26 28 30 31 30 22z m55
-67 c-11 -34 -24 -18 -23 27 1 45 1 45 14 19 8 -15 12 -35 9 -46z m-95 59 c0
-2 -10 -12 -22 -23 l-23 -19 19 23 c18 21 26 27 26 19z m-120 -29 c0 -18 -2
-20 -9 -8 -6 8 -7 18 -5 22 9 14 14 9 14 -14z"/>
<path d="M335 960 c-3 -5 -1 -10 4 -10 6 0 11 5 11 10 0 6 -2 10 -4 10 -3 0
-8 -4 -11 -10z"/>
<path d="M350 571 c0 -5 5 -13 10 -16 6 -3 10 -2 10 4 0 5 -4 13 -10 16 -5 3
-10 2 -10 -4z"/>
<path d="M25 940 c-20 -39 -19 -126 4 -175 l18 -40 -3 72 c-2 44 1 75 7 79 8
4 7 9 -2 15 -12 8 -12 10 0 18 8 5 9 11 3 15 -6 3 -8 15 -5 26 8 30 -4 24 -22
-10z"/>
<path d="M80 902 c1 -12 48 -43 54 -34 2 4 -9 15 -25 24 -16 10 -29 14 -29 10z"/>
<path d="M50 711 c0 -5 5 -13 10 -16 6 -3 10 -2 10 4 0 5 -4 13 -10 16 -5 3
-10 2 -10 -4z"/>
<path d="M858 153 c7 -3 16 -2 19 1 4 3 -2 6 -13 5 -11 0 -14 -3 -6 -6z"/>
<path d="M778 143 c12 -2 30 -2 40 0 9 3 -1 5 -23 4 -22 0 -30 -2 -17 -4z"/>
</g>
</svg>
